<?xml version="1.0" encoding="UTF-8" standalone="no" ?>
<!DOCTYPE svg PUBLIC "-//W3C//DTD SVG 1.1//EN" "http://www.w3.org/Graphics/SVG/1.1/DTD/svg11.dtd">
<svg xmlns="http://www.w3.org/2000/svg" xmlns:xlink="http://www.w3.org/1999/xlink" version="1.1" width="1280" height="1024" viewBox="0 0 1280 1024" xml:space="preserve">
<desc>Created with Fabric.js 5.3.0</desc>
<defs>
</defs>
<g transform="matrix(1 0 0 1 640 512)" id="background-logo"  >
<rect style="stroke: none; stroke-width: 0; stroke-dasharray: none; stroke-linecap: butt; stroke-dashoffset: 0; stroke-linejoin: miter; stroke-miterlimit: 4; fill: rgb(255,255,255); fill-opacity: 0; fill-rule: nonzero; opacity: 1;"  paint-order="stroke"  x="-640" y="-512" rx="0" ry="0" width="1280" height="1024" />
</g>
<g transform="matrix(1.9211538461538464 0 0 1.9211538461538464 640 404.7756009615384)" id="logo-logo"  >
<g style=""  paint-order="stroke"   >
		<g transform="matrix(0.8651165803812455 0 0 0.8651165803812455 0 0)"  >
<path style="stroke: none; stroke-width: 1; stroke-dasharray: none; stroke-linecap: butt; stroke-dashoffset: 0; stroke-linejoin: miter; stroke-miterlimit: 4; fill: rgb(17,94,89); fill-rule: nonzero; opacity: 1;"  paint-order="stroke"  transform=" translate(-199.99999990236722, -199.99999995000002)" d="M 312.2872013 234.6026638 C 307.4693082 214.65247159999998 300.75469269999996 196.38093329999998 287.2413156 181.1986206 C 287.4643618 180.9319607 287.6876451 180.6653007 287.9106913 180.3984038 C 293.0447838 182.8424309 298.1791133 185.2864581 303.84699969999997 187.98434540000002 C 295.6713248 171.19259190000002 283.19780299999996 158.75225440000003 268.4471238 147.30104750000004 L 281.4186479 147.30104750000004 C 281.5509112 147.07634210000003 281.6831745 146.85139960000004 281.8152008 146.62669420000003 C 276.1003822 142.20701330000003 270.5626259 137.53086480000002 264.6257092 133.43354610000003 C 257.3806182 128.43361320000002 249.7505888 123.99496980000004 242.40167820000002 119.14057390000004 C 240.66092220000002 117.99049930000004 238.90262590000003 116.39812470000004 237.95544980000003 114.58862970000004 C 228.94779590000002 97.38349410000004 216.46574100000004 83.04264160000004 201.98006250000003 70.31454840000004 C 201.39649210000002 69.80161320000003 200.72095360000003 69.39344570000003 199.30445600000004 68.37018270000003 C 195.84214350000005 80.37462010000003 192.52039040000005 91.89219570000003 189.05452240000005 103.90919580000002 C 178.67327360000004 95.14307660000001 168.44443580000006 86.50542820000003 157.84085190000005 77.55158030000001 C 157.61756870000005 78.65614500000001 157.37911540000005 79.4646579 157.29899890000004 80.28857780000001 C 156.14015410000005 92.19820280000002 157.15962460000006 103.95304650000001 160.11848320000004 115.51779130000001 C 160.83313180000005 118.31049110000001 160.29601950000006 119.86541480000001 157.72992130000003 121.39142070000001 C 148.02373690000002 127.16360080000001 141.30675110000004 136.02263620000002 134.93037890000002 144.9944984 C 133.24153270000002 147.37073469999999 133.22731080000003 151.22651869999999 133.17421590000004 154.4150604 C 133.07561100000004 160.34984379999997 130.98286390000004 164.4428959 125.71958950000004 167.8212994 C 116.07361100000004 174.0132615 106.99935140000004 181.094801 97.66435770000004 187.77386189999999 C 95.02928350000003 189.6589698 92.35059570000004 191.4886125 89.62710890000004 193.2428793 C 87.74674160000004 194.454108 87.26675370000004 195.9760843 88.12053960000004 197.9910852 C 91.91872510000005 206.95607349999997 97.58495230000004 214.3583161 106.00050260000005 219.4893272 C 106.95597480000005 220.0719495 108.09443490000005 220.6917857 108.61400690000005 221.6000887 C 113.77180250000005 230.61509049999998 122.22290750000005 231.664664 131.25592370000004 230.8371886 C 136.66615740000003 230.34155669999998 141.98940060000004 228.9307479 147.39678990000004 228.3609252 C 156.14655400000004 227.4393485 161.44941260000004 233.7002866 159.71102690000004 242.4856053 C 157.82568190000003 252.0140164 153.47118460000004 260.385716 147.82629020000005 268.1669712 C 147.43471490000005 268.70669089999996 147.06731680000004 269.26418789999997 147.00663680000005 270.3523975 C 150.19683770000006 268.8913381 153.38703850000005 267.4302787 157.35707160000004 265.6120136 C 152.88856230000005 278.3633358 152.15589930000004 290.8055696 156.22098180000003 303.5002414 C 158.32321020000003 299.4240185 160.26686480000004 295.6549878 162.21051930000004 291.8861941 C 162.57720600000005 291.96085880000004 162.94365580000004 292.0357606 163.31010550000005 292.11042530000003 C 163.52476830000006 292.1541632 165.44226270000004 302.21100110000003 165.77466420000005 303.25405770000003 C 166.90484040000004 306.8004847 168.34515810000005 310.24313620000004 170.01838980000005 313.56672160000005 C 173.33331150000006 320.1512402000001 177.60975490000004 325.9911852000001 182.12815750000004 331.62981720000005 C 176.21654350000006 307.64521030000003 173.87812500000004 284.0333972 178.61843700000006 259.5468991 C 181.43034150000005 262.3500532 183.93788580000006 265.4583131 186.08285030000005 268.7995116 C 186.56199770000003 261.9611077 185.78763820000006 255.0407978 183.84302870000005 248.468633 C 182.19704120000006 242.905716 180.31355520000005 236.90524010000001 176.97631960000004 232.1272787 C 170.66844730000003 223.0962198 160.80584690000003 221.383445 150.55214720000004 222.4273271 C 143.88470090000004 223.1064211 137.30471900000003 224.66442610000001 130.69273790000003 225.86878090000002 C 124.96037900000003 226.91290270000002 119.85188590000003 225.8531369 115.56517940000003 221.61099220000003 C 123.80390460000004 222.04286280000002 131.75131860000005 220.99471150000002 139.57784670000004 218.57391340000004 C 147.37356080000004 216.16259660000003 155.26148000000003 214.04993880000004 163.19562030000003 211.78131470000002 C 159.72501170000004 207.3945811 156.64692650000003 206.60668990000002 151.88473570000002 208.63046100000003 C 148.57886370000003 210.03534400000004 145.25402920000002 211.40135390000003 141.900988 212.68890660000002 C 131.65129140000002 216.62480710000003 121.25297640000001 218.97947360000003 110.34362240000002 215.4391778 C 106.67130040000002 214.24738570000002 103.31280750000002 212.6123455 100.74433900000001 209.04858370000002 C 106.28328050000002 206.8084033 108.1363893 202.18866810000003 109.00771540000001 197.14915100000002 C 109.5002659 194.2998008 110.9471034 192.7638396 113.3363764 191.39214090000002 C 123.6481751 185.47205350000002 133.8597097 179.37703710000002 144.1392721 173.30311650000002 C 143.817621 172.67569530000003 143.1970737 172.0281265 143.2421096 171.43104530000002 C 143.46776319999998 168.45132800000002 144.11438389999998 165.4898621 144.1710343 162.5137003 C 144.367059 152.22773800000002 150.9837807 144.3926767 161.5164923 142.36606120000002 C 159.9359693 145.1416948 158.38934170000002 147.85759650000003 156.3018093 151.5235187 C 166.6183486 148.2245206 175.0239436 150.3833994 183.4584564 155.51725480000002 C 179.0840484 157.84821810000003 175.1083267 159.46405880000003 170.4855101 158.89447320000002 C 166.8065512 158.44103280000002 163.1119483 158.00774010000003 159.4133158 157.87405450000003 C 158.07029789999999 157.82570020000003 156.20723379999998 158.25448930000002 155.4172094 159.17962150000002 C 151.5071452 163.75858730000002 147.8689557 168.56984350000002 144.1480423 173.32184190000004 L 144.0368747 173.43395760000004 C 148.6781796 172.16892290000004 153.2630712 170.58721470000003 157.9804631 169.75120620000004 C 161.10216200000002 169.19773870000003 163.698126 168.28706540000005 165.9046481 165.98454580000003 C 168.8267669 162.93561540000005 172.1646381 161.02040460000003 176.72914500000002 162.07803710000005 C 179.29927260000002 162.67369610000006 182.0128041 162.74172400000003 184.6699221 162.85692110000005 C 200.3011716 163.53364470000005 215.64822080000002 165.51972790000005 229.81698870000002 172.77382610000006 C 235.20351930000004 175.53168230000006 240.4987929 178.48343000000006 245.2782869 183.42623840000007 C 237.8385934 181.67363080000007 231.19485020000002 180.10875190000007 224.5511069 178.54387290000008 C 231.6985411 188.1514524000001 237.7222111 197.72608450000007 239.4608339 209.57929610000008 C 224.5726768 201.2289293000001 218.90242 198.95106100000007 213.75410570000003 199.34832500000007 C 215.38250900000003 205.97547610000007 217.94102210000003 212.44903100000008 217.26721460000002 219.9725114000001 C 211.77092560000003 215.9130528000001 207.30002240000002 213.4248851000001 200.46516810000003 213.42035850000008 C 202.24391300000002 213.4215365000001 207.55638230000002 229.67351780000007 208.25304850000003 231.68730330000008 C 210.35994130000003 237.7774947000001 212.21088980000005 244.08485990000008 213.82968830000004 250.3226251000001 C 217.37719100000004 263.9923248000001 218.99110130000005 278.1640603000001 218.58641000000006 292.2814267000001 C 222.24508990000007 286.2304647000001 225.28863940000005 279.8077991000001 227.65498150000005 273.1444287000001 C 231.36453770000006 291.0359425000001 229.98589260000006 311.0660071000001 218.79632130000005 325.5110511000001 C 222.73376260000003 324.4840784000001 225.95481920000003 320.2829652000001 228.95916550000004 317.6698565000001 C 232.58556140000005 314.5157039000001 236.07747400000005 311.2069535000001 239.42113950000004 307.7544956000001 C 245.56351690000002 301.4122660000001 251.32584620000003 294.3816392000001 254.19035130000003 286.0301551000001 C 255.61610810000002 292.1939046000001 255.05318000000003 297.8940169000001 254.78252100000003 304.0866562000001 C 268.35515580000003 291.4085766000001 276.9572496 276.7911089000001 280.01921660000005 258.9917364000001 C 280.43947260000004 258.9623446000001 280.85972870000006 258.9329527000001 281.27998470000006 258.90332380000007 C 283.14897450000007 265.10239680000007 285.01820140000007 271.30123270000007 286.84286640000005 277.35334650000004 C 294.74998510000006 269.6723554 299.37801630000007 247.20038990000003 297.44763550000005 223.79215170000003 C 302.47079750000006 227.45143700000003 307.0639851 230.79760430000005 312.28720130000005 234.60266370000002 Z M 224.2154712 140.6857481 C 222.1274647 139.0561596 220.2371421 137.3893573 218.1545873 136.01410320000002 C 216.3780396 134.84127360000002 215.8904667 133.52622530000002 216.0544922 131.38299060000003 C 216.2998193 128.17596050000003 216.2562056 124.88241410000003 215.8103502 121.69932420000004 C 214.79277589999998 114.43764100000004 212.6905476 107.52510460000003 207.70791789999998 101.68963720000004 C 207.92148289999997 112.00736170000003 207.05821579999997 122.02737520000004 203.1424629 131.92958420000002 C 199.3025599 129.22268960000002 195.7371389 126.86541590000002 192.3961863 124.22417890000003 C 191.71282580000002 123.68398510000003 191.47010600000002 121.98162820000003 191.70927030000001 120.97827570000003 C 193.1857367 114.78394330000003 194.82931000000002 108.62872110000002 196.4731203 102.47539510000003 C 198.2788228 95.71574370000003 200.14520530000001 88.97244740000002 202.05069790000002 81.98121670000003 C 217.648526 95.19901600000003 227.588423 126.07041380000004 224.21547120000002 140.68574820000003 Z" stroke-linecap="round" />
</g>
</g>
</g>
<g transform="matrix(1.8352581880493861 0.5680312348712895 -0.5680312348712895 1.8352581880493861 550.3629175479642 665.3740348799495)" id="text-logo-0"  >
<g style=""  paint-order="stroke"   >
		<g transform="matrix(1 0 0 1 0 -1.77636e-15)" id="26f928d0-5cf2-492a-a771-334991c6772b-path-0"  >
<path style="stroke: none; stroke-width: 0; stroke-dasharray: none; stroke-linecap: butt; stroke-dashoffset: 0; stroke-linejoin: miter; stroke-miterlimit: 4; fill: rgb(0,0,0); fill-rule: nonzero; opacity: 1;"  paint-order="stroke"  transform=" translate(-14.030000000000001, 13.21)" d="M 1.04 -13.23 C 1.04 -10.44 1.56 -8.02 2.6 -5.95 C 3.62 -3.88 5.11 -2.27 7.06 -1.15 C 9.01 0 11.31 0.56 14 0.56 C 16.68 0.56 19 0 20.97 -1.15 C 22.93 -2.27 24.42 -3.88 25.46 -5.95 C 26.51 -8.02 27.02 -10.44 27.02 -13.23 C 27.02 -15.98 26.51 -18.41 25.48 -20.47 C 24.46 -22.54 22.97 -24.15 21.02 -25.29 C 19.07 -26.42 16.75 -26.98 14.06 -26.98 C 11.42 -26.98 9.11 -26.42 7.14 -25.28 C 5.18 -24.13 3.67 -22.52 2.63 -20.46 C 1.57 -18.39 1.04 -15.98 1.04 -13.23 Z M 8.12 -13.23 C 8.12 -16.08 8.65 -18.2 9.72 -19.58 C 10.8 -20.97 12.24 -21.67 14.03 -21.67 C 15.83 -21.67 17.26 -20.97 18.34 -19.58 C 19.41 -18.2 19.94 -16.08 19.94 -13.23 C 19.94 -10.37 19.41 -8.25 18.34 -6.87 C 17.26 -5.47 15.83 -4.77 14.03 -4.77 C 12.24 -4.77 10.82 -5.47 9.74 -6.87 C 8.66 -8.25 8.12 -10.37 8.12 -13.23 Z" stroke-linecap="round" />
</g>
</g>
</g>
<g transform="matrix(1.909351830600243 0.21262099514210242 -0.2126209951421024 1.9093518306002428 606.9803352023234 677.3167176734321)" id="text-logo-1"  >
<g style=""  paint-order="stroke"   >
		<g transform="matrix(1 0 0 1 0 0)" id="a5ba4631-b6e6-4541-b5ed-a5cb1513a800-path-0"  >
<path style="stroke: none; stroke-width: 0; stroke-dasharray: none; stroke-linecap: butt; stroke-dashoffset: 0; stroke-linejoin: miter; stroke-miterlimit: 4; fill: rgb(0,0,0); fill-rule: nonzero; opacity: 1;"  paint-order="stroke"  transform=" translate(-12.86, 13.075000000000001)" d="M 2.2 -23.45 L 2.2 -3.08 C 2.2 -2.14 2.53 -1.35 3.2 -0.7 C 3.85 -0.05 4.63 0.27 5.57 0.27 C 6.51 0.27 7.3 -0.05 7.95 -0.7 C 8.6 -1.35 8.92 -2.14 8.92 -3.08 L 8.92 -9.02 L 12.46 -9.02 L 16.37 -1.47 C 16.9 -0.39 18.03 0.27 19.24 0.27 C 20.15 0.27 20.94 -0.03 21.57 -0.67 C 22.2 -1.3 22.51 -2.05 22.51 -2.94 C 22.51 -3.5 22.37 -4 22.11 -4.44 L 18.83 -10.78 L 18.83 -10.85 C 21.82 -12.29 23.52 -14.92 23.52 -18.34 C 23.52 -20.9 22.64 -22.88 20.92 -24.3 C 19.17 -25.72 16.78 -26.42 13.76 -26.42 L 5.18 -26.42 C 3.26 -26.42 2.2 -25.36 2.2 -23.45 Z M 8.92 -14.36 L 8.92 -21.48 L 12.32 -21.48 C 13.65 -21.48 14.71 -21.23 15.48 -20.73 C 16.25 -20.22 16.63 -19.28 16.63 -17.89 C 16.63 -16.56 16.24 -15.64 15.47 -15.12 C 14.68 -14.61 13.64 -14.36 12.32 -14.36 Z" stroke-linecap="round" />
</g>
</g>
</g>
<g transform="matrix(1.9168456402929437 -0.1285880705262045 0.12858807052620447 1.9168456402929435 660.2064277825338 678.0035117474348)" id="text-logo-2"  >
<g style=""  paint-order="stroke"   >
		<g transform="matrix(1 0 0 1 0 0)" id="28b4bedf-ff4b-4cdf-b343-f3ba1c0b13eb-path-0"  >
<path style="stroke: none; stroke-width: 0; stroke-dasharray: none; stroke-linecap: butt; stroke-dashoffset: 0; stroke-linejoin: miter; stroke-miterlimit: 4; fill: rgb(0,0,0); fill-rule: nonzero; opacity: 1;"  paint-order="stroke"  transform=" translate(-13.055, 13.21)" d="M 2.2 -23.45 L 2.2 -2.97 C 2.2 -1.06 3.26 0 5.18 0 L 14.39 0 C 16.35 0 18.05 -0.32 19.48 -0.99 C 22.35 -2.29 23.91 -4.75 23.91 -7.91 C 23.91 -9.52 23.4 -10.83 22.39 -11.86 C 21.36 -12.89 20.03 -13.55 18.41 -13.86 L 18.41 -13.96 C 21.6 -14.94 23.07 -17 23.07 -19.81 C 23.07 -21.79 22.34 -23.4 20.87 -24.61 C 19.4 -25.82 17.29 -26.42 14.56 -26.42 L 5.18 -26.42 C 3.26 -26.42 2.2 -25.36 2.2 -23.45 Z M 8.78 -4.8 L 8.78 -11.06 L 13.47 -11.06 C 15.94 -11.06 17.43 -10.03 17.43 -7.98 C 17.41 -5.86 16.1 -4.8 13.47 -4.8 Z M 8.78 -15.86 L 8.78 -21.64 L 13.16 -21.64 C 15.74 -21.64 16.8 -20.63 16.8 -18.76 C 16.8 -16.85 15.69 -15.86 13.16 -15.86 Z" stroke-linecap="round" />
</g>
</g>
</g>
<g transform="matrix(1.8841736125989974 -0.37512917532146467 0.3751291753214646 1.8841736125989972 697.491215027869 672.9638437980951)" id="text-logo-3"  >
<g style=""  paint-order="stroke"   >
		<g transform="matrix(1 0 0 1 -3.55271e-15 0)" id="a0a4ca01-b908-4ab7-b56d-1e6d761204e1-path-0"  >
<path style="stroke: none; stroke-width: 0; stroke-dasharray: none; stroke-linecap: butt; stroke-dashoffset: 0; stroke-linejoin: miter; stroke-miterlimit: 4; fill: rgb(0,0,0); fill-rule: nonzero; opacity: 1;"  paint-order="stroke"  transform=" translate(-5.53, 13.22)" d="M 2.17 -23.34 L 2.17 -3.08 C 2.17 -2.14 2.5 -1.35 3.16 -0.7 C 3.81 -0.05 4.6 0.27 5.54 0.27 C 6.48 0.27 7.26 -0.05 7.91 -0.7 C 8.56 -1.35 8.89 -2.14 8.89 -3.08 L 8.89 -23.34 C 8.89 -24.28 8.56 -25.07 7.91 -25.74 C 7.26 -26.39 6.48 -26.71 5.54 -26.71 C 4.6 -26.71 3.81 -26.39 3.16 -25.74 C 2.5 -25.07 2.17 -24.28 2.17 -23.34 Z" stroke-linecap="round" />
</g>
</g>
</g>
<g transform="matrix(1.8243510103412777 -0.6021424180860194 0.6021424180860193 1.8243510103412774 732.948354647344 663.9073552854558)" id="text-logo-4"  >
<g style=""  paint-order="stroke"   >
		<g transform="matrix(1 0 0 1 0 0)" id="0006808c-4122-434d-89f7-2c655c210986-path-0"  >
<path style="stroke: none; stroke-width: 0; stroke-dasharray: none; stroke-linecap: butt; stroke-dashoffset: 0; stroke-linejoin: miter; stroke-miterlimit: 4; fill: rgb(0,0,0); fill-rule: nonzero; opacity: 1;"  paint-order="stroke"  transform=" translate(-11.405, 13.075000000000001)" d="M 0.34 -23.77 C 0.34 -23.04 0.62 -22.42 1.15 -21.89 C 1.67 -21.36 2.29 -21.11 3.01 -21.11 L 8.05 -21.11 L 8.05 -3.08 C 8.05 -2.14 8.37 -1.35 9.04 -0.7 C 9.69 -0.05 10.48 0.27 11.42 0.27 C 12.36 0.27 13.14 -0.05 13.79 -0.7 C 14.44 -1.35 14.77 -2.14 14.77 -3.08 L 14.77 -21.11 L 19.81 -21.11 C 20.56 -21.11 21.19 -21.38 21.7 -21.91 C 22.22 -22.44 22.47 -23.05 22.47 -23.77 C 22.47 -24.51 22.22 -25.14 21.7 -25.65 C 21.19 -26.16 20.56 -26.42 19.81 -26.42 L 3.01 -26.42 C 2.29 -26.42 1.67 -26.16 1.15 -25.67 C 0.62 -25.16 0.34 -24.52 0.34 -23.77 Z" stroke-linecap="round" />
</g>
</g>
</g>
</svg>