<?xml version="1.0" encoding="UTF-8"?>
<svg version="1.1" xmlns="http://www.w3.org/2000/svg" width="1280" height="1500">
<path d="M0 0 C14.29438305 8.28490773 25.97190953 19.76905297 37.91235352 31.0559082 C39.38898365 32.43099951 40.88063857 33.79003901 42.38256836 35.13745117 C52.57491949 44.31138265 62.20304596 54.05279456 71.88555908 63.75860596 C73.79406141 65.66972055 75.70627382 67.57710168 77.61846638 69.48452282 C79.93168385 71.79322753 82.24105587 74.10577122 84.55078125 76.41796875 C85.39570633 77.2608696 86.24063141 78.10377045 87.11116028 78.97221375 C91.40241195 83.28033984 95.55268445 87.65168665 99.50874329 92.27062988 C101.88435703 95.02556495 104.38673512 97.65974595 106.875 100.3125 C111.3178788 105.08757602 115.52322907 109.98819733 119.60546875 115.078125 C121.88134245 117.85521069 124.22335318 120.55384188 126.59667969 123.24707031 C133.62657395 131.23200042 140.12960953 139.53257925 146.51708984 148.03662109 C147.85859978 149.81278556 149.21440481 151.57594127 150.58203125 153.33203125 C162.0680085 168.0838114 172.80624456 183.33046986 183 199 C183.54769043 199.84014648 184.09538086 200.68029297 184.65966797 201.54589844 C195.74980239 218.61299831 206.27499052 236.00482682 215.7890625 254.00317383 C220.41252091 262.71883749 224.69404868 270.24893106 232 277 C232.66128906 277.68964844 233.32257812 278.37929688 234.00390625 279.08984375 C241.97397076 286.97436195 251.8308275 292.44258018 261.30224609 298.31591797 C265.0258811 300.64040976 268.70120705 303.03535258 272.375 305.4375 C281.20149817 311.17884234 290.14294133 316.73468452 299.078125 322.3046875 C306.61155689 327.00157639 314.11850646 331.73951316 321.61621094 336.49316406 C324.06542044 338.04135344 326.52060984 339.5797212 328.9765625 341.1171875 C351.89826335 355.5171863 374.44494645 370.61536448 396 387 C397.09223877 387.82636963 397.09223877 387.82636963 398.20654297 388.66943359 C407.31724719 395.56688189 416.33532586 402.57923011 425.30273438 409.66162109 C427.01697269 411.01338381 428.73447429 412.36088403 430.453125 413.70703125 C436.51739614 418.45819961 442.55576708 423.23874775 448.5625 428.0625 C455.30102139 433.47285671 462.12733225 438.76147416 469 444 C468.34 445.65 467.68 447.3 467 449 C431.855 449.495 431.855 449.495 396 450 C401.28 454.29 406.56 458.58 412 463 C419.50713255 469.10470119 426.93855971 475.28487237 434.30419922 481.55859375 C436.00234846 483.00199616 437.70590193 484.43881423 439.41015625 485.875 C446.95610255 492.25847133 454.24347222 498.87133298 461.43359375 505.65234375 C464.47820168 508.52237368 467.57544642 511.32809109 470.6875 514.125 C476.37947148 519.32842352 481.85154987 524.74290448 487.3125 530.1875 C488.16094482 531.03135254 489.00938965 531.87520508 489.88354492 532.74462891 C494.22267113 537.09443525 498.41123886 541.51103585 502.41577148 546.1706543 C504.82717595 548.95515941 507.35559479 551.62612327 509.875 554.3125 C515.17374466 560.01484872 520.12898036 565.92714381 525 572 C525.9827665 573.19273342 526.96724931 574.38405401 527.953125 575.57421875 C549.33929617 601.47102321 568.02998654 629.45207723 584 659 C584.44569336 659.82435547 584.89138672 660.64871094 585.35058594 661.49804688 C586.7621759 664.11970949 588.1645285 666.74605271 589.5625 669.375 C590.00489014 670.20273926 590.44728027 671.03047852 590.90307617 671.88330078 C591.3076001 672.6514209 591.71212402 673.41954102 592.12890625 674.2109375 C592.49056885 674.89462402 592.85223145 675.57831055 593.22485352 676.28271484 C594 678 594 678 594 680 C588.08379799 678.16479487 582.54910222 675.99510945 577.01171875 673.2265625 C576.27876083 672.86632492 575.54580292 672.50608734 574.79063416 672.13493347 C573.22810614 671.36659631 571.6667524 670.59586707 570.10650635 669.82290649 C565.98486152 667.78184318 561.85371792 665.76020034 557.72265625 663.73828125 C556.8962262 663.33343002 556.06979614 662.9285788 555.21832275 662.51145935 C545.51834824 657.76991626 535.72829039 653.23399675 525.9140625 648.734375 C522.27749512 647.0659276 518.66783328 645.36086096 515.0859375 643.578125 C514.37872559 643.23031982 513.67151367 642.88251465 512.94287109 642.52416992 C511.18521108 641.6541746 509.43582959 640.76750301 507.6875 639.87890625 C505.04524478 638.71238227 505.04524478 638.71238227 502.625 639.83984375 C502.08875 640.22269531 501.5525 640.60554687 501 641 C501.763125 641.86625 502.52625 642.7325 503.3125 643.625 C507.38973481 648.38177394 511.22504303 653.32761324 515.078125 658.265625 C516.94890177 660.66310121 518.8330071 663.04859472 520.734375 665.421875 C544.2753069 694.88101334 563.0923631 727.37040782 580 761 C580.44263184 761.87060059 580.88526367 762.74120117 581.34130859 763.63818359 C606.70166587 813.74623208 623.37656275 868.80456197 637.375 923 C637.62050598 923.94280823 637.86601196 924.88561646 638.11895752 925.85699463 C638.80549387 928.50639474 639.47950135 931.15860829 640.1484375 933.8125 C640.3528949 934.60099335 640.55735229 935.38948669 640.76800537 936.20187378 C642.11562501 941.65312496 642.11562501 941.65312496 641 945 C626.29106661 934.52402332 611.64295136 923.96970623 597.11767578 913.24023438 C584.17704738 903.69077825 571.09956459 894.3297542 558 885 C558.1537207 886.01336426 558.30744141 887.02672852 558.46582031 888.07080078 C560.8910232 905.90956459 560.24368284 924.15599315 560.25 942.125 C560.25088371 943.27540709 560.25088371 943.27540709 560.25178528 944.44905472 C560.26494859 968.74515887 559.78523986 992.83992016 557 1017 C556.92503296 1017.66920471 556.85006592 1018.33840942 556.77282715 1019.02789307 C550.36517635 1076.21591794 538.91317491 1144.37734331 498 1188 C496 1187 496 1187 495.26976585 1185.268363 C495.04300478 1184.50972737 494.81624371 1183.75109175 494.58261108 1182.96946716 C494.31902298 1182.10143463 494.05543488 1181.2334021 493.78385925 1180.33906555 C493.50117691 1179.37953476 493.21849457 1178.42000397 492.92724609 1177.43139648 C492.62459335 1176.42663269 492.32194061 1175.4218689 492.01011658 1174.38665771 C491.00715959 1171.05030552 490.01529352 1167.71076134 489.0234375 1164.37109375 C488.33194613 1162.06303433 487.63976857 1159.75518038 486.94692993 1157.44752502 C485.12182519 1151.36187349 483.30609317 1145.27346386 481.49224854 1139.18444824 C479.64107125 1132.97610223 477.78111306 1126.7703889 475.921875 1120.56445312 C472.27261382 1108.37887447 468.63294254 1096.19045315 465 1084 C463.02 1083.67 461.04 1083.34 459 1083 C458.814375 1084.3921875 458.814375 1084.3921875 458.625 1085.8125 C453.46103717 1121.48431901 441.75998951 1156.25161068 427 1189 C426.58782227 1189.92071289 426.17564453 1190.84142578 425.75097656 1191.79003906 C409.8707817 1226.99263057 388.27571042 1260.83281218 362.74609375 1289.8515625 C360.16004365 1292.79136049 357.69864088 1295.81943104 355.25 1298.875 C352.07833928 1302.78518822 348.76879947 1306.39049472 345.1171875 1309.85546875 C343.26489037 1311.73168854 341.55506167 1313.65181886 339.8359375 1315.6484375 C335.67093576 1320.44401273 331.23810233 1324.9457189 326.75 1329.4375 C325.94820312 1330.25154297 325.14640625 1331.06558594 324.3203125 1331.90429688 C323.54945313 1332.67708984 322.77859375 1333.44988281 321.984375 1334.24609375 C321.29053711 1334.94404053 320.59669922 1335.6419873 319.88183594 1336.36108398 C318 1338 318 1338 315 1339 C314.9305495 1327.50208426 315.10719557 1316.03594998 315.48547363 1304.54464722 C316.16301648 1283.26083583 315.36201894 1263.06019413 312 1242 C309.90761907 1244.09238093 309.27491056 1245.44697816 308.1875 1248.15625 C307.83969482 1249.00469482 307.49188965 1249.85313965 307.13354492 1250.72729492 C306.7594751 1251.6422876 306.38540527 1252.55728027 306 1253.5 C294.47403466 1280.93240622 277.15525422 1305.35911755 258 1328 C257.54077148 1328.54414551 257.08154297 1329.08829102 256.60839844 1329.64892578 C242.69539318 1346.08121457 227.69955062 1361.39253558 212.5 1376.625 C211.79596039 1377.33171844 211.09192078 1378.03843689 210.36654663 1378.76657104 C208.32026835 1380.81874767 206.27018207 1382.86703903 204.21875 1384.9140625 C203.61082108 1385.5239653 203.00289215 1386.1338681 202.37654114 1386.76225281 C198.65722939 1390.46197668 194.81958435 1393.97419456 190.84411621 1397.39743042 C187.82468731 1400.0213675 184.91757234 1402.76400217 182 1405.5 C178.33231031 1408.92337095 174.66796899 1412.33987623 170.875 1415.625 C163.78365836 1421.76781823 156.84865092 1428.04436357 150.33666992 1434.80004883 C139.9153541 1445.55489807 127.59133643 1456.50524842 113 1461 C112.01 1460.67 111.02 1460.34 110 1460 C111.14275391 1458.42025391 111.14275391 1458.42025391 112.30859375 1456.80859375 C119.02107255 1447.4611367 125.35270382 1438.02943477 131 1428 C131.3722168 1427.34064453 131.74443359 1426.68128906 132.12792969 1426.00195312 C147.10332453 1399.21731682 156.73606521 1369.9731746 163 1340 C163.19432617 1339.07364746 163.38865234 1338.14729492 163.58886719 1337.19287109 C174.85807755 1281.93833966 172.29517862 1223.06559112 161 1168 C158.43962446 1174.10148174 155.90622209 1180.21154453 153.44921875 1186.35546875 C142.83778999 1212.72279328 130.68606513 1238.27332945 116.29101562 1262.79785156 C114.50133381 1265.85059929 112.75027158 1268.9245228 111 1272 C110.34 1272 109.68 1272 109 1272 C109.00523682 1271.20867676 109.01047363 1270.41735352 109.01586914 1269.60205078 C109.35948441 1208.90828575 105.42224777 1148.69581084 94 1089 C93.79017487 1087.89996643 93.79017487 1087.89996643 93.57611084 1086.77770996 C80.49550608 1018.54770146 59.24937951 951.94939987 35.6875 886.6875 C35.366604 885.79441132 35.04570801 884.90132263 34.71508789 883.98117065 C28.8311741 867.6501261 22.32044553 851.59825709 14.6875 836 C14.37633743 835.3632283 14.06517487 834.7264566 13.74458313 834.07038879 C11.86065451 830.3441662 9.71736475 827.16725957 7 824 C36.69038424 822.833129 63.788496 833.25277348 88 850 C89.24994251 850.85555275 90.49994369 851.71101978 91.75 852.56640625 C94.84584412 854.69320931 97.9267898 856.84058486 101 859 C102.07001786 822.62762364 93.71201719 789.59435677 84.08276367 754.88085938 C83.67054565 753.38329102 83.67054565 753.38329102 83.25 751.85546875 C83.00765625 750.98559326 82.7653125 750.11571777 82.515625 749.21948242 C82 747 82 747 82 744 C127.84488611 742.17027062 172.09802598 769.35412744 210.64257812 791.65039062 C215.70040205 794.5459634 220.84626428 797.27969804 226 800 C222.97294702 753.81787053 197.82790766 707.96338786 173 670 C172.30390625 668.9275 171.6078125 667.855 170.890625 666.75 C161.9995711 653.22971968 152.42177306 640.15296195 143 627 C146.1092372 626.01402491 148.14020356 626.02822118 151.29949951 626.78414917 C152.1516806 626.98326904 153.00386169 627.18238892 153.88186646 627.38754272 C155.27210526 627.72720566 155.27210526 627.72720566 156.69042969 628.07373047 C157.67302765 628.30606384 158.65562561 628.53839722 159.66799927 628.777771 C162.92136552 629.54912694 166.17151262 630.33327936 169.421875 631.1171875 C171.68363891 631.65522987 173.94562559 632.19233656 176.20782471 632.72854614 C182.17099003 634.14406877 188.13164705 635.5698665 194.0916748 636.99853516 C203.61673055 639.28055659 213.14488428 641.54953809 222.67417145 643.81381607 C225.99868784 644.60570941 229.32175822 645.4034622 232.64471436 646.20187378 C234.69376258 646.69059548 236.74285299 647.17914035 238.79199219 647.66748047 C240.1700856 648.00107071 240.1700856 648.00107071 241.57601929 648.34140015 C246.71333447 649.55965429 251.74809984 650.44666408 257 651 C186.65013345 581.93133963 82.08059717 553.62712283 -85.33886719 538.12646484 C-100.26750342 537.44241951 -115.16559528 536.40410181 -129.84106445 533.42285156 C-145.57456862 530.34126961 -160.52911826 534.0631924 -173.80078125 542.66015625 C-180.10399388 547.27019821 -185.68633588 552.66858411 -191.1875 558.19921875 C-195.63542614 562.48708694 -200.27728021 565.46619254 -205.75 568.25 C-206.36907227 568.56735107 -206.98814453 568.88470215 -207.62597656 569.21166992 C-216.53178036 573.51855648 -226.06926574 575.96277459 -235.76464844 577.72314453 C-252.02485976 580.68512387 -267.85785849 585.12675463 -283.75 589.625 C-284.92900879 589.95641998 -286.10801758 590.28783997 -287.32275391 590.62930298 C-290.73332359 591.59058702 -294.14062519 592.56259306 -297.546875 593.5390625 C-298.56779236 593.82751541 -299.58870972 594.11596832 -300.64056396 594.41316223 C-308.36081849 596.6534082 -315.60854569 599.48181538 -322.59375 603.48828125 C-323.77710938 604.16443481 -323.77710938 604.16443481 -324.984375 604.85424805 C-325.81453125 605.33547119 -326.6446875 605.81669434 -327.5 606.3125 C-328.40234375 606.83175049 -329.3046875 607.35100098 -330.234375 607.88598633 C-338.26035211 612.52600435 -346.2061266 617.29755784 -354.14550781 622.08374023 C-362.14796779 626.90381811 -370.18704931 631.65715087 -378.25 636.375 C-378.85216339 636.72738739 -379.45432678 637.07977478 -380.07473755 637.44284058 C-383.14259866 639.23779439 -386.2110344 641.03176298 -389.27978516 642.82519531 C-394.88639981 646.10212582 -400.48955506 649.38496052 -406.09225464 652.6685791 C-407.32146789 653.38896942 -408.5507362 654.1092658 -409.78005981 654.82946777 C-417.59455539 659.40781246 -425.39660308 664.00658544 -433.1875 668.625 C-441.09157068 673.30878538 -449.03671051 677.9176937 -457 682.5 C-461.33445902 684.9980527 -465.66764453 687.49830107 -470 690 C-471.03914551 690.59941406 -472.07829102 691.19882812 -473.14892578 691.81640625 C-476.12444038 693.53695798 -479.09423055 695.26698573 -482.0625 697 C-482.93583984 697.50337891 -483.80917969 698.00675781 -484.70898438 698.52539062 C-496.48576161 705.43406725 -505.41333556 712.72920933 -510 726 C-510.89763116 729.62145262 -511.59830657 733.27612478 -512.3125 736.9375 C-516.76781414 758.40231177 -524.67505814 778.61726547 -543.125 791.9375 C-553.88852163 799 -553.88852163 799 -558 799 C-536.49225004 827.41147217 -502.03150468 837.94570875 -467.9375 842.8125 C-438.07003021 846.59618782 -408.06407985 843.30658478 -379 836 C-378.03336426 835.75797852 -377.06672852 835.51595703 -376.07080078 835.26660156 C-346.53846627 827.72952687 -318.41083235 816.33114309 -290.28515625 804.75976562 C-284.07659122 802.20710791 -277.85354432 799.69102018 -271.625 797.1875 C-270.13830811 796.5840979 -270.13830811 796.5840979 -268.62158203 795.96850586 C-255.87170602 790.84540655 -241.76393719 787.8598028 -228.4375 793 C-218.44267894 797.9695698 -211.14111345 805.58245565 -204 814 C-205 816 -205 816 -208.54222107 817.20256042 C-210.16182728 817.6630071 -211.78399331 818.11449935 -213.40795898 818.55932617 C-214.29432006 818.80890139 -215.18068113 819.0584766 -216.09390163 819.3156147 C-219.05929677 820.14873433 -222.02767956 820.97067703 -224.99609375 821.79296875 C-227.07974328 822.3766553 -229.16316446 822.96115763 -231.24636841 823.5464325 C-235.6752268 824.78941865 -240.10529121 826.02796558 -244.53640747 827.26287842 C-255.95373926 830.44523061 -267.36384077 833.65332652 -278.7734375 836.86328125 C-279.89010614 837.17718811 -281.00677479 837.49109497 -282.15728188 837.81451416 C-299.3516703 842.65052297 -316.4835375 847.64554259 -333.5625 852.875 C-379.26561162 866.79445328 -424.20527679 872.72986186 -472 872 C-467.28173685 876.2882887 -462.59992933 880.27830546 -457.125 883.5625 C-456.49859619 883.93890625 -455.87219238 884.3153125 -455.22680664 884.703125 C-425.1798221 901.92952386 -391.65067646 894.65717604 -359.68261719 888.14648438 C-350.32848036 886.24758776 -340.94592027 884.49735673 -331.5625 882.75 C-330.65846436 882.5812738 -329.75442871 882.41254761 -328.82299805 882.2387085 C-273.3576906 871.91293291 -208.98170812 862.79034773 -159.13427734 896.25244141 C-155.27749883 898.99972119 -151.62694566 901.95772591 -148 905 C-147.18015625 905.66773438 -146.3603125 906.33546875 -145.515625 907.0234375 C-139.55140397 912.06217596 -134.75595095 917.82919626 -130 924 C-129.34257812 924.83015625 -128.68515625 925.6603125 -128.0078125 926.515625 C-98.83962738 964.70369066 -85.05714211 1018.30033484 -77 1065 C-76.82355957 1065.98935547 -76.64711914 1066.97871094 -76.46533203 1067.99804688 C-72.48422756 1091.37174649 -73.71847972 1115.3840575 -74 1139 C-74.66 1139 -75.32 1139 -76 1139 C-77.55955451 1136.82089644 -79.00783698 1134.63748446 -80.4375 1132.375 C-90.55379346 1116.80877059 -102.5589387 1101.83010397 -116 1089 C-118.72485012 1099.69890178 -120.43050321 1110.45826108 -122 1121.375 C-122.13039673 1122.2749469 -122.26079346 1123.1748938 -122.3951416 1124.10211182 C-124.78884561 1140.70161019 -126.70595858 1157.27467667 -128 1174 C-128.10296387 1175.24491211 -128.20592773 1176.48982422 -128.31201172 1177.77246094 C-131.67227028 1219.57131707 -131.50771221 1262.21341856 -128 1304 C-127.93447937 1304.78860413 -127.86895874 1305.57720825 -127.80145264 1306.38970947 C-122.90693435 1364.78385244 -113.86003392 1423.07548996 -99.77929688 1479.98583984 C-99.5874884 1480.76742966 -99.39567993 1481.54901947 -99.19805908 1482.35429382 C-98.83810544 1483.80795202 -98.47013535 1485.25965941 -98.09246826 1486.70881653 C-97.24878335 1490.11119301 -96.69582358 1492.67139089 -98 1496 C-106.4112273 1485.69393577 -114.43456403 1475.15163258 -122.25634766 1464.39208984 C-123.94659105 1462.07327092 -125.64946508 1459.76426969 -127.35546875 1457.45703125 C-147.49557122 1430.09090777 -164.7110272 1400.22397101 -178.25 1369.0625 C-178.70882568 1368.01779541 -179.16765137 1366.97309082 -179.64038086 1365.89672852 C-188.15869757 1345.84927163 -193.63355639 1325.30779877 -197.9375 1304 C-198.42128 1301.67161576 -198.90630228 1299.34348927 -199.39257812 1297.015625 C-203.12194011 1279.00762119 -203.12194011 1279.00762119 -204 1271 C-205.98 1271 -207.96 1271 -210 1271 C-210.3717334 1271.74870361 -210.7434668 1272.49740723 -211.12646484 1273.26879883 C-218.21016541 1287.52242683 -225.3326935 1301.74200825 -232.82666016 1315.78564453 C-234.07980202 1318.1506043 -235.31291345 1320.5253006 -236.54296875 1322.90234375 C-236.95571045 1323.69552002 -237.36845215 1324.48869629 -237.79370117 1325.3059082 C-238.57811471 1326.81393172 -239.35845487 1328.32408347 -240.1340332 1329.83666992 C-242.77474289 1334.88737145 -242.77474289 1334.88737145 -245 1336 C-266.9656684 1266.17069264 -264.97610255 1190.62881987 -239 1122 C-240.26553711 1122.59518433 -240.26553711 1122.59518433 -241.55664062 1123.20239258 C-255.97961646 1129.98248248 -270.40445544 1136.75939321 -284.875 1143.4375 C-285.87724609 1143.90325439 -286.87949219 1144.36900879 -287.91210938 1144.84887695 C-289.28206055 1145.47862427 -289.28206055 1145.47862427 -290.6796875 1146.12109375 C-291.86667236 1146.66914673 -291.86667236 1146.66914673 -293.07763672 1147.22827148 C-295 1148 -295 1148 -297 1148 C-296.86499481 1140.84472483 -294.29314588 1136.65934769 -290.28125 1130.85742188 C-258.33044108 1084.53849005 -216.47237719 1018.53844548 -224.49609375 959.33984375 C-227.67981647 943.09746176 -234.44467926 929.87487015 -248 920 C-279.4399372 900.8208696 -318.51864127 913.27399749 -352.30151367 919.18164062 C-396.24337 926.83203159 -446.32893906 932.15727955 -485.15234375 905.5234375 C-496.39649827 897.26823545 -505.35601754 887.31218345 -512.68359375 875.5078125 C-517.3730422 868.20871644 -522.41245231 863.70624445 -529.875 859.3125 C-551.55976941 846.06081281 -571.95450105 829.69132017 -587.82421875 809.734375 C-589.25863415 807.93169855 -590.71930634 806.14956347 -592.20703125 804.390625 C-606.57516987 787.38035931 -617.46597466 767.66481494 -627.125 747.6875 C-627.58640381 746.73939453 -628.04780762 745.79128906 -628.52319336 744.81445312 C-632.39895251 736.6267022 -635.30162979 729.08805293 -633 720 C-629.10842238 712.36652082 -621.71047175 707.60019932 -614.6953125 703.0234375 C-614.01859497 702.57606232 -613.34187744 702.12868713 -612.64465332 701.66775513 C-611.21108719 700.72034722 -609.77622666 699.77489532 -608.34014893 698.83129883 C-604.604641 696.37547487 -600.88065682 693.90230188 -597.15625 691.4296875 C-596.43273346 690.94969299 -595.70921692 690.46969849 -594.96377563 689.97515869 C-582.27125262 681.54300794 -570.00008096 672.56702273 -557.75390625 663.50390625 C-553.19407182 660.13448342 -548.60207495 656.81139661 -544 653.5 C-534.61205769 646.740353 -525.30303204 639.87582434 -516 633 C-485.87921611 610.73787966 -455.43222937 588.93495188 -424.078125 568.43359375 C-401.5838613 553.67883898 -384.24501707 537.48182937 -378.4296875 510.2734375 C-376.60669121 501.26275085 -376.31424238 492.22759832 -376 483.0625 C-375.33669442 463.75915063 -374.21101109 445.47958999 -362.125 429.5625 C-361.56055176 428.80098633 -360.99610352 428.03947266 -360.41455078 427.25488281 C-359.22269582 425.64802743 -358.02649551 424.04438684 -356.82617188 422.44384766 C-355.00743396 420.00994838 -353.21139409 417.56091238 -351.421875 415.10546875 C-344.47317287 405.58119328 -337.38585089 396.18971424 -330 387 C-329.25492187 386.071875 -328.50984375 385.14375 -327.7421875 384.1875 C-311.50779624 364.17090289 -311.50779624 364.17090289 -303.68603516 356.6887207 C-301.95232867 354.95225274 -300.37328095 353.1395911 -298.78515625 351.26953125 C-295.16430431 347.10719455 -291.29405654 343.31013355 -287.25 339.5625 C-286.5489917 338.90999268 -285.8479834 338.25748535 -285.12573242 337.58520508 C-279.59647781 332.47557291 -273.93343569 327.63792572 -268 323 C-267.02160156 322.21496094 -266.04320312 321.42992187 -265.03515625 320.62109375 C-259.02747009 315.84859764 -252.84038403 311.50718955 -246.375 307.375 C-231.12760429 298.45784796 -231.12760429 298.45784796 -222 284 C-220.84134823 275.23084782 -223.46030045 266.70930105 -225.50408936 258.26623535 C-232.5781136 228.88674805 -237.51718148 199.12835413 -240 169 C-240.09498779 167.91340088 -240.18997559 166.82680176 -240.2878418 165.70727539 C-241.26033577 152.85738838 -241.18731709 139.98430342 -241.18530273 127.10424805 C-241.185182 123.10262478 -241.20565855 119.10118765 -241.22460938 115.09960938 C-241.31796688 72.8182899 -241.31796688 72.8182899 -236 53 C-232.11649732 53.56615984 -230.24229686 55.33844647 -227.4375 58 C-223.95775359 61.22575032 -220.44089914 64.33034073 -216.75 67.3125 C-212.48268565 70.76842359 -208.28696316 74.29386904 -204.125 77.875 C-195.69483065 85.12589091 -187.26221369 92.37081932 -178.625 99.375 C-173.50266476 103.54156423 -168.52582622 107.86201281 -163.54956055 112.20043945 C-159.03784637 116.12489097 -154.44674445 119.93426783 -149.80078125 123.69921875 C-145.3200238 127.38006413 -140.93840814 131.17513193 -136.54296875 134.95703125 C-133.18857372 137.84230575 -129.81708011 140.70679062 -126.4375 143.5625 C-125.90527832 144.01222168 -125.37305664 144.46194336 -124.82470703 144.92529297 C-123.7528666 145.83068442 -122.68092674 146.73595817 -121.60888672 147.64111328 C-119.44696837 149.46709773 -117.2867642 151.29510325 -115.12670898 153.12329102 C-114.04433746 154.03931879 -112.96181847 154.95517236 -111.87915039 155.87084961 C-109.14363268 158.18456788 -106.40998789 160.50043895 -103.6796875 162.8203125 C-98.69685653 167.05079624 -93.70297285 171.2585368 -88.625 175.375 C-84.12470676 179.0331331 -79.74265683 182.81095166 -75.375 186.625 C-70.05332508 191.27131161 -64.66770155 195.77610318 -59 200 C-56.94429817 194.67571179 -55.14074372 189.36354315 -53.57421875 183.87744141 C-53.35032219 183.10312743 -53.12642563 182.32881346 -52.89574432 181.53103542 C-52.15663289 178.97207411 -51.42205579 176.41183488 -50.6875 173.8515625 C-50.16087972 172.02485839 -49.63397702 170.19823568 -49.10681152 168.37168884 C-47.69380261 163.47287338 -46.28470675 158.5729404 -44.87637329 153.67277908 C-43.40877346 148.56888087 -41.93760038 143.46601284 -40.46679688 138.36303711 C-37.80623206 129.13028014 -35.14871031 119.89665064 -32.49248505 110.66264439 C-30.01658673 102.05612591 -27.53709941 93.45064475 -25.05646133 84.84549141 C-23.20367984 78.41800851 -21.35173196 71.99028534 -19.5 65.5625 C-19.20910366 64.5527392 -19.20910366 64.5527392 -18.91233063 63.52257919 C-15.13912434 50.42397846 -11.36884443 37.32465305 -7.6484375 24.2109375 C-7.40252869 23.345186 -7.15661987 22.47943451 -6.90325928 21.58744812 C-5.82228904 17.78098026 -4.74426768 13.97374962 -3.67382812 10.16430664 C-3.32513672 8.93317139 -2.97644531 7.70203613 -2.6171875 6.43359375 C-2.32440918 5.39259521 -2.03163086 4.35159668 -1.72998047 3.27905273 C-1 1 -1 1 0 0 Z M16 80 C12.16074267 91.92480227 8.75447587 103.93719491 5.4921875 116.03125 C4.96832316 117.96463356 4.44423375 119.89795615 3.91993713 121.83122253 C2.52294642 126.98635593 1.1302314 132.14263437 -0.26115799 137.29928207 C-1.12963172 140.5171615 -1.99910803 143.73476849 -2.86886597 146.95230103 C-21.79097927 216.62332271 -21.79097927 216.62332271 -39.6875 286.5625 C-39.96341476 287.6667482 -39.96341476 287.6667482 -40.24490356 288.79330444 C-40.73864901 290.77796074 -41.21937614 292.76584281 -41.69921875 294.75390625 C-41.95533936 295.80908447 -42.21145996 296.8642627 -42.4753418 297.95141602 C-43.59880105 304.47939913 -43.41957685 310.2749665 -40 316 C-34.09090406 322.67808788 -26.2246797 327.56701595 -18.94628906 332.640625 C-16.27771271 334.50447763 -13.62295463 336.38759882 -10.96728516 338.26977539 C-8.85135459 339.76672837 -6.73059116 341.25664256 -4.609375 342.74609375 C-1.24780175 345.10992971 2.09018966 347.50439689 5.421875 349.91015625 C7.23952741 351.21101564 9.0572348 352.51179822 10.875 353.8125 C11.73754395 354.44188477 12.60008789 355.07126953 13.48876953 355.71972656 C14.69702393 356.57969238 14.69702393 356.57969238 15.9296875 357.45703125 C16.64366699 357.97241455 17.35764648 358.48779785 18.09326172 359.01879883 C18.72248535 359.34259521 19.35170898 359.6663916 20 360 C20.99 359.67 21.98 359.34 23 359 C24.25048135 356.51758177 24.25048135 356.51758177 25.234375 353.39453125 C25.84321533 351.60039795 25.84321533 351.60039795 26.46435547 349.77001953 C26.89442467 348.45134145 27.32293184 347.13215306 27.75 345.8125 C27.9693219 345.14506775 28.1886438 344.4776355 28.41461182 343.78997803 C43.22907077 298.53636185 47.95102582 251.52443621 48.125 204.125 C48.12975342 203.05386963 48.13450684 201.98273926 48.1394043 200.87915039 C48.137229 199.89035889 48.13505371 198.90156738 48.1328125 197.8828125 C48.13112061 196.57401123 48.13112061 196.57401123 48.12939453 195.23876953 C48.0877794 192.82840312 48.0877794 192.82840312 47 190 C75.836282 217.03401438 87.53234661 261.01802065 93.25 298.8125 C93.41322754 299.88435547 93.57645508 300.95621094 93.74462891 302.06054688 C95.47913994 314.20027692 96.10028734 326.22406305 95.95703125 338.46875 C95.94187973 339.81914619 95.94187973 339.81914619 95.92642212 341.19682312 C95.88071709 344.90855352 95.83094417 348.61984124 95.75317383 352.33105469 C95.69851709 355.08537244 95.6695882 357.83902473 95.64453125 360.59375 C95.60885796 361.83457336 95.60885796 361.83457336 95.57246399 363.10046387 C95.54210038 369.88424016 97.4374921 375.00862049 101.8671875 380.1796875 C106.80867884 384.35207513 111.94740286 388.15164781 117.25195312 391.84472656 C125.19394854 397.43653966 132.5737356 403.74958338 140 410 C140.66 409.67 141.32 409.34 142 409 C142.66390352 406.56489504 142.66390352 406.56489504 143.0625 403.625 C143.29646484 402.15933594 143.29646484 402.15933594 143.53515625 400.6640625 C155.35591464 307.48867285 112.49564708 200.30349765 51.74511719 116.25 C44.09591163 106.38778981 35.59389177 97.42039476 26.8125 88.5625 C25.97372314 87.71429688 25.13494629 86.86609375 24.27075195 85.9921875 C23.48659912 85.21230469 22.70244629 84.43242188 21.89453125 83.62890625 C21.19175049 82.92838135 20.48896973 82.22785645 19.76489258 81.50610352 C18.13313734 79.78362177 18.13313734 79.78362177 16 80 Z M-281 455.625 C-302.82390967 478.34150311 -311.197434 507.06534953 -312.9375 537.875 C-313.5082606 547.14539141 -314.32060676 556.30387387 -315.625 565.5 C-318.34565012 579.57063001 -318.34565012 579.57063001 -315 592.8125 C-314.34 593.534375 -313.68 594.25625 -313 595 C-309.36264241 591.49231648 -306.14853227 587.81703567 -303.0625 583.8125 C-302.59505371 583.21228027 -302.12760742 582.61206055 -301.64599609 581.99365234 C-300.09355302 579.99866911 -298.54627788 577.99976491 -297 576 C-294.70991731 573.04043614 -292.41846426 570.0819443 -290.125 567.125 C-289.5362207 566.36582275 -288.94744141 565.60664551 -288.34082031 564.82446289 C-283.86649552 559.0728929 -279.30095178 553.40200382 -274.6862793 547.76269531 C-271.6765812 544.0803492 -268.70886532 540.37165683 -265.79150391 536.61572266 C-264.00601355 534.32027616 -262.20292553 532.03914901 -260.39453125 529.76171875 C-259.43098854 528.54447012 -258.47299319 527.3228171 -257.51953125 526.09765625 C-250.74128395 517.43753052 -245.56890298 511.06172348 -234.10351562 509.64111328 C-226.44667197 509.01019891 -219.08953715 509.06657368 -211.4375 509.6875 C-210.26364746 509.77563965 -209.08979492 509.8637793 -207.88037109 509.95458984 C-200.79322518 510.51770332 -193.73153055 511.22631013 -186.66796875 512.02734375 C-185.87561325 512.11712997 -185.08325775 512.2069162 -184.26689148 512.29942322 C-180.37957219 512.74342765 -176.49442217 513.20089885 -172.61108398 513.6784668 C-141.72195485 517.39856659 -118.36104807 509.57778412 -91 496 C-116.42214473 473.37860003 -161.71494225 462.45462232 -195 464 C-211.79451226 465.07667025 -227.93438436 467.99962419 -244 473 C-241.7763716 468.95526863 -239.54653908 464.91398879 -237.3125 460.875 C-236.97830048 460.27052032 -236.64410095 459.66604065 -236.29977417 459.04324341 C-230.99709997 449.46475603 -225.53450348 439.99646827 -219.86254883 430.63037109 C-219.09720825 429.35734131 -219.09720825 429.35734131 -218.31640625 428.05859375 C-217.64266968 426.94955688 -217.64266968 426.94955688 -216.95532227 425.81811523 C-215.84495209 424.04722523 -215.84495209 424.04722523 -216 422 C-239.29027277 422 -264.96825968 440.57279575 -281 455.625 Z " fill="#105D58" transform="translate(636,2)"/>
</svg>
